<svg version="1.2" baseProfile="tiny" viewBox="0 0 281 64"><path d="M56.026 47.976v2.037h-12.03v-2.037h3.396V35.169c0-3.492-1.746-4.802-4.075-4.802-1.892 0-3.929.728-5.918 2.28.098.582.146 1.213.146 1.892v13.437h3.395v2.037H29.59v-2.037h3.347V35.169c0-3.54-1.698-4.85-3.735-4.85-1.99 0-4.027.873-6.015 2.522v15.135h3.395v2.037h-12.03v-2.037h4.027v-18.19h-4.027v-2.038h8.635v2.91c3.153-2.377 5.724-3.299 8.149-3.299 2.522 0 4.56 1.02 5.53 3.348 2.765-2.038 5.481-3.348 8.343-3.348 4.075 0 6.791 2.232 6.791 7.568v13.049h4.026zM74.901 36.09v8.344c0 2.329 1.019 3.105 2.135 3.105.679 0 1.31-.194 1.892-.63v1.745c-1.164 1.02-2.426 1.601-4.123 1.601-1.99 0-3.396-.873-4.123-2.813-2.474 2.28-4.172 2.862-6.016 2.862-3.104 0-5.48-2.426-5.48-5.578 0-3.057 2.328-4.997 6.984-5.773l4.22-.68v-2.23c0-3.687-1.309-5.58-4.075-5.58-2.133 0-4.074 1.068-5.869 2.912l-.485-1.698c2.086-2.717 4.997-4.172 7.81-4.172 4.269 0 7.13 2.426 7.13 8.586zm-7.13 4.56c-2.862.534-3.978 1.795-3.978 3.542 0 1.891 1.31 3.153 3.153 3.153 1.068 0 2.377-.582 3.445-1.698v-5.433l-2.62.437zM88.196 27.748h7.179v2.037h-7.179v13.097c0 3.347 1.31 4.705 3.687 4.705 1.31 0 2.619-.63 4.025-1.988v2.182c-1.455 1.698-3.589 2.668-5.966 2.668-3.298 0-6.354-1.795-6.354-6.936V29.785h-2.96v-.582l7.568-7.373v5.918zM107.553 30.513c3.444-2.28 5.87-3.154 8.44-3.154 3.687 0 6.743 2.086 6.743 7.568v13.049h3.978v2.037h-12.418v-2.037h3.832v-13c0-3.493-1.94-4.803-4.123-4.803-2.086 0-4.172.922-6.452 2.62v15.183h3.735v2.037h-12.32v-2.037h4.025V16.542H98.92v-2.037h8.634v16.008zM131.129 14.548c0-.318.212-.53.53-.53h6.352c.37 0 .687.16.9.53l12.703 22.655h.265V14.548c0-.318.212-.53.53-.53h5.98c.318 0 .53.212.53.53v34.935c0 .318-.212.53-.53.53h-6.298c-.424 0-.689-.159-.9-.53l-12.757-22.602h-.265v22.602c0 .318-.212.53-.53.53h-5.98c-.318 0-.53-.212-.53-.53V14.548zM165.795 14.548c0-.318.212-.53.53-.53h23.078c.318 0 .53.212.53.53v5.663c0 .318-.212.53-.53.53h-15.51c-.211 0-.317.106-.317.318v7.146c0 .211.106.317.318.317h12.916c.317 0 .529.212.529.53v5.61c0 .318-.212.53-.53.53h-12.915c-.212 0-.318.105-.318.317v7.464c0 .212.106.317.318.317h15.51c.317 0 .529.212.529.53v5.663c0 .318-.212.53-.53.53h-23.079c-.317 0-.53-.212-.53-.53V14.548zM222.164 50.013c-.371 0-.582-.212-.688-.53l-6.247-22.39h-.105l-6.299 22.39c-.106.318-.318.53-.688.53h-5.293c-.319 0-.53-.212-.636-.53l-9.316-34.935c-.053-.318.053-.53.423-.53h6.829c.37 0 .582.212.635.53l5.188 22.602h.105l6.14-22.602c.106-.318.318-.53.688-.53h4.606c.317 0 .53.212.635.53l6.352 22.602h.106l4.975-22.602c.053-.37.265-.53.636-.53h6.775c.37 0 .476.212.423.53l-9.262 34.935c-.053.318-.319.53-.689.53h-5.293zM239.042 45.672c-.21-.212-.317-.582-.053-.9l4.024-4.605c.212-.265.529-.265.794-.053 2.381 1.906 5.61 3.705 9.422 3.705 3.757 0 5.875-1.746 5.875-4.287 0-2.117-1.27-3.44-5.558-4.023l-1.905-.264c-7.305-1.006-11.381-4.447-11.381-10.799 0-6.616 4.975-11.01 12.757-11.01 4.763 0 9.21 1.43 12.227 3.758.318.212.37.424.106.794l-3.229 4.817c-.212.265-.476.318-.741.159-2.752-1.8-5.399-2.753-8.363-2.753-3.176 0-4.817 1.642-4.817 3.917 0 2.065 1.482 3.388 5.61 3.97l1.906.265c7.411 1.006 11.328 4.394 11.328 10.905s-4.817 11.327-14.133 11.327c-5.611 0-11.063-2.223-13.869-4.923z"/></svg>
