<svg version="1.2" baseProfile="tiny" viewBox="0 0 252.492 37.158"><defs/><path d="M41.474 34.54v2.036h-12.03V34.54h3.396V21.734c0-3.493-1.747-4.803-4.075-4.803-1.892 0-3.93.728-5.918 2.28.097.581.146 1.212.146 1.892v13.436h3.395v2.037h-11.35V34.54h3.346V21.734c0-3.542-1.697-4.852-3.735-4.852-1.988 0-4.026.874-6.015 2.523v15.134h3.396v2.037H0V34.54h4.026V16.35H0v-2.037h8.634v2.91c3.154-2.377 5.724-3.299 8.15-3.299 2.522 0 4.56 1.02 5.53 3.348 2.765-2.038 5.48-3.348 8.343-3.348 4.074 0 6.79 2.232 6.79 7.568v13.048h4.027zM60.35 22.655v8.343c0 2.328 1.018 3.106 2.134 3.106.679 0 1.31-.196 1.891-.631v1.746c-1.164 1.02-2.425 1.601-4.123 1.601-1.989 0-3.395-.873-4.123-2.814-2.473 2.28-4.171 2.861-6.015 2.861-3.105 0-5.48-2.424-5.48-5.577 0-3.056 2.327-4.998 6.984-5.773l4.22-.68v-2.23c0-3.687-1.31-5.58-4.075-5.58-2.134 0-4.074 1.068-5.869 2.912l-.485-1.698c2.086-2.717 4.997-4.172 7.81-4.172 4.269 0 7.13 2.426 7.13 8.586zm-7.132 4.56c-2.861.533-3.977 1.794-3.977 3.54 0 1.893 1.31 3.153 3.153 3.153 1.067 0 2.377-.582 3.444-1.698V26.78l-2.62.435zM73.644 14.312h7.179v2.037h-7.179v13.097c0 3.347 1.31 4.706 3.687 4.706 1.31 0 2.619-.63 4.025-1.99v2.184c-1.455 1.697-3.589 2.668-5.966 2.668-3.299 0-6.354-1.795-6.354-6.937V16.349h-2.96v-.582l7.568-7.373v5.918zM93 17.077c3.445-2.28 5.87-3.154 8.44-3.154 3.687 0 6.744 2.086 6.744 7.568v13.048h3.978v2.037H99.744V34.54h3.832v-13c0-3.492-1.94-4.802-4.123-4.802-2.086 0-4.172.922-6.453 2.62v15.182h3.736v2.037h-12.32V34.54h4.025V3.106h-4.074V1.07H93v16.008zM116.577 1.112c0-.318.212-.53.529-.53h6.352c.37 0 .688.16.9.53l12.704 22.655h.265V1.112c0-.318.212-.53.529-.53h5.982c.316 0 .53.212.53.53v34.935c0 .318-.214.53-.53.53h-6.3c-.423 0-.688-.159-.9-.53l-12.757-22.602h-.264v22.602c0 .318-.212.53-.53.53h-5.981c-.317 0-.53-.212-.53-.53V1.112zM151.242 1.112c0-.318.213-.53.53-.53h23.08c.316 0 .529.212.529.53v5.663c0 .318-.213.53-.53.53h-15.51c-.212 0-.318.106-.318.318v7.146c0 .211.106.317.319.317h12.916c.316 0 .53.212.53.53v5.61c0 .318-.214.53-.53.53h-12.916c-.213 0-.319.105-.319.318v7.463c0 .212.106.317.319.317h15.51c.316 0 .529.212.529.53v5.663c0 .318-.213.53-.53.53h-23.08c-.316 0-.529-.212-.529-.53V1.112zM207.611 36.576c-.37 0-.582-.21-.687-.53l-6.246-22.39h-.106l-6.299 22.39c-.107.32-.318.53-.689.53h-5.293c-.318 0-.53-.21-.635-.53L178.34 1.113c-.053-.318.053-.53.424-.53h6.828c.37 0 .582.212.635.53l5.187 22.602h.106l6.14-22.602c.106-.318.319-.53.688-.53h4.605c.318 0 .53.212.635.53l6.353 22.602h.106l4.974-22.602c.053-.37.266-.53.637-.53h6.776c.369 0 .474.212.421.53l-9.261 34.935c-.053.318-.319.53-.69.53h-5.293zM224.49 32.236c-.21-.211-.318-.582-.053-.9l4.024-4.605c.21-.265.53-.265.793-.053 2.383 1.905 5.611 3.705 9.422 3.705 3.758 0 5.875-1.747 5.875-4.287 0-2.118-1.27-3.44-5.557-4.022l-1.906-.266c-7.305-1.006-11.381-4.446-11.381-10.798 0-6.616 4.977-11.01 12.758-11.01 4.764 0 9.209 1.43 12.226 3.758.319.212.372.424.106.794l-3.229 4.817c-.21.265-.476.318-.74.159-2.752-1.8-5.398-2.753-8.363-2.753-3.176 0-4.817 1.642-4.817 3.917 0 2.065 1.48 3.388 5.61 3.97l1.906.265c7.41 1.006 11.328 4.394 11.328 10.905s-4.818 11.326-14.133 11.326c-5.611 0-11.064-2.222-13.869-4.922z"/></svg>